<svg width="513" height="262" viewBox="0 0 513 262" fill="none" xmlns="http://www.w3.org/2000/svg">
<mask id="mask0_2416_21656" style="mask-type:alpha" maskUnits="userSpaceOnUse" x="0" y="0" width="513" height="262">
<rect width="513" height="262" fill="#1C2395"/>
</mask>
<g mask="url(#mask0_2416_21656)">
<path d="M154.248 400.574C121.865 384.895 102.381 354.2 88.3455 322.843C84.703 314.713 81.3759 306.433 78.2065 298.113C75.0371 289.792 71.5992 281.911 69.5385 273.455C65.1922 255.602 74.9514 238.503 82.9498 222.133C92.5806 202.433 102.196 182.723 111.826 163.023C116.613 153.233 121.383 143.435 126.17 133.645C130.956 123.855 135.143 114.58 140.239 105.341C145.335 96.1017 151.338 88.1516 159.772 81.8127C167.596 75.938 176.411 71.554 185.122 67.1978C202.064 58.717 219.363 50.7482 237.395 45.1554C255.427 39.5625 273.608 36.8687 291.937 37.6012C310.293 38.3268 328.152 42.0431 345.495 46.8049C354.424 49.2562 363.258 51.9829 372.049 54.7734C379.833 57.2505 389.808 59.2015 391.531 68.2336C392.315 72.3092 391.664 76.6846 391.344 80.8539C390.939 86.0736 390.534 91.2932 390.14 96.4969C389.314 107.191 388.488 117.885 387.662 128.579C386.025 149.712 384.4 170.829 382.78 191.971C381.159 213.113 379.817 234.393 377.845 255.575C376.973 264.924 375.098 273.985 370.224 282.493C365.039 291.505 357.822 299.486 350.994 307.404C336.791 323.871 321.831 339.708 306.584 355.291C298.862 363.181 291.089 371.019 283.284 378.839C276.225 385.921 269.251 393.14 261.6 399.641C248.174 411.08 231.572 420.393 213.821 419.31C209.944 419.069 206.146 418.346 202.602 416.976C200.611 416.211 198.863 415.012 196.909 414.224C194.152 413.107 191.143 412.373 188.291 411.466L160.209 402.491L154.458 400.65C153.329 400.29 153.914 398.514 155.043 398.875C169.087 403.375 183.141 407.859 197.2 412.368C198.492 412.778 199.537 413.53 200.729 414.124C204.384 415.952 208.517 417.021 212.715 417.402C220.994 418.14 229.622 416.441 237.486 413.139C255.336 405.617 268.97 390.671 282.319 377.275C297.435 362.122 312.509 346.901 327.11 331.277C334.269 323.614 341.297 315.855 348.167 307.939C355.037 300.024 362.417 291.895 367.859 282.92C373.301 273.945 375.124 264.701 376.012 254.9C376.9 245.099 377.621 234.367 378.41 224.091C380.004 203.483 381.597 182.875 383.175 162.258C384.768 141.65 386.362 121.042 387.939 100.425C388.344 95.2054 388.749 89.9857 389.144 84.782C389.495 80.3671 390.104 75.8578 389.946 71.4589C389.763 66.342 387.418 62.6918 382.792 60.4614C378.66 58.4695 373.943 57.3302 369.521 55.9419C335.835 45.2978 300.251 35.3262 263.327 40.9414C245.161 43.7101 227.471 49.8059 210.472 57.2211C201.857 60.9724 193.394 65.0525 184.999 69.2596C176.604 73.4666 167.515 78.0019 159.843 84.0077C151.435 90.6032 145.568 99.1367 140.693 108.304C135.818 117.472 131.336 127.194 126.713 136.638C117.388 155.743 108.046 174.84 98.7316 193.93C94.0031 203.599 89.2903 213.277 84.5619 222.946C80.5442 231.175 76.164 239.395 73.2073 247.99C70.2505 256.585 69.3633 265.529 71.7127 274.238C74.0621 282.947 77.4579 290.892 80.6012 299.022C92.7922 330.642 107.504 363.309 134.19 385.421C140.599 390.739 147.692 395.282 155.3 398.978C156.351 399.492 155.298 401.087 154.248 400.574Z" fill="#B4B4FF" fill-opacity="0.2"/>
<path d="M126.227 252.116C125.343 238.685 125.768 225.08 127.522 211.532C128.38 204.835 129.575 198.155 131.069 191.514C132.563 184.874 134.3 177.471 137.391 170.909C138.897 167.705 140.76 164.683 143.149 161.983C145.537 159.284 148.413 156.995 151.389 154.918C157.846 150.393 164.617 146.245 171.231 141.942C184.753 133.152 198.281 124.388 211.803 115.598C224.253 107.513 236.567 99.1746 249.242 91.4387C259.226 85.3494 269.787 79.7006 281.085 76.7821C292.384 73.8637 303.538 74.2252 313.304 79.0246C323.071 83.8241 330.442 93.2752 334.629 103.409C339.083 114.224 340.83 126.215 340.538 138.138C340.247 150.061 337.963 162.734 336.221 174.948C334.48 187.162 333.037 199.548 334.211 211.65C334.803 217.727 336.221 223.506 337.89 229.298C339.56 235.089 341.077 240.882 340.272 246.971C338.482 260.213 326.886 270.127 316.407 278.021C305.927 285.915 294.161 293.556 282.134 299.75C258.347 312.028 232.059 319.578 205.849 318.884C192.941 318.551 180.208 316.275 168.471 311.732C157.442 307.464 145.954 301.327 139.734 291.282C136.881 286.659 135.558 280.934 133.893 275.76C131.762 269.221 129.641 262.665 127.526 256.135C127.107 254.862 126.698 253.573 126.28 252.3C125.923 251.195 127.779 250.718 128.145 251.807C131.465 262.039 134.79 272.295 138.109 282.526C138.916 284.988 139.743 287.418 141.033 289.674C143.98 294.746 148.51 298.767 153.434 302.026C163.504 308.669 175.41 312.891 187.596 315.14C212.678 319.782 239.324 315.801 263.786 306.151C276.069 301.312 287.839 295.081 298.995 287.97C304.658 284.353 310.189 280.507 315.547 276.43C320.905 272.353 326.468 267.866 330.84 262.587C335.212 257.308 338.271 251.387 338.577 244.902C338.873 238.829 336.983 233.042 335.355 227.385C332.162 216.237 331.434 204.741 332.293 192.945C334.016 169.048 341.33 144.834 337.557 121.176C335.767 109.974 331.892 98.8089 324.53 90.1986C317.467 81.9572 307.281 76.9393 295.765 76.6999C284.669 76.4813 273.663 80.4029 263.618 85.4016C252.342 91.0152 241.885 98.1521 231.322 104.987C218.189 113.516 205.056 122.045 191.896 130.581C185.293 134.868 178.679 139.171 172.075 143.459C165.472 147.746 159 151.735 152.643 156.142C149.667 158.219 146.775 160.498 144.403 163.207C141.82 166.169 139.878 169.607 138.397 173.134C135.664 179.614 134.075 186.53 132.601 193.271C129.745 206.319 128.144 219.537 127.777 232.692C127.592 239.159 127.721 245.607 128.145 252.005C128.222 253.17 126.326 253.184 126.264 252.027L126.227 252.116Z" fill="#B4B4FF" fill-opacity="0.2"/>
<path d="M564.99 248.376C566.381 259.526 576.087 267.016 584.976 272.719C595.418 279.422 606.902 284.612 617.197 291.538C624.831 296.677 633.418 303.791 632.955 313.967C632.756 318.118 631.674 322.488 630.656 326.565C629.474 331.252 627.861 336 625.146 340.183C622.43 344.366 618.76 347.431 614.627 350.077C609.969 353.06 605.07 355.685 600.27 358.455C580.025 370.101 559.78 381.747 539.55 393.401C530.913 398.371 522.354 403.517 513.559 408.199C506.873 411.757 499.95 414.982 492.729 417.18C485.508 419.377 478.015 420.539 470.665 419.937C462.612 419.284 455.076 416.596 448.476 412.489C434.285 403.64 424.907 389.105 418.693 374.052C412.017 357.855 408.49 340.207 407.611 322.426C406.738 304.406 408.575 286.158 409.373 268.04C410.17 249.922 409.944 230.625 405.803 212.625C403.717 203.583 400.453 194.879 398.956 185.668C397.458 176.458 398.366 167.284 403.451 158.852C408.135 151.092 415.402 145.206 422.816 139.954C430.229 134.701 437.816 130.075 445.806 126.054C461.912 117.952 479.329 112.667 497.02 111.209C514.932 109.746 532.724 112.347 549.114 118.059C557.985 121.158 566.455 125.127 574.419 129.862C578.636 132.385 582.699 135.107 586.62 138.011C588.51 139.423 590.368 140.882 592.195 142.39C593.387 143.379 594.788 144.314 595.77 145.491C597.239 147.211 597.315 149.892 597.275 152.09C597.203 155.72 596.506 159.409 595.735 163.012C593.548 173.169 590.243 183.214 586.786 193.127C583.107 203.704 579.098 214.224 574.93 224.654C572.101 231.74 569.199 238.805 566.217 245.825C565.791 246.834 565.364 247.843 564.922 248.842C564.432 249.947 562.636 249.512 563.125 248.408C564.779 244.584 566.391 240.759 567.961 236.931C571.68 227.937 575.283 218.921 578.724 209.856C582.671 199.432 586.449 188.933 589.707 178.335C592.212 170.162 594.869 161.594 595.336 153.156C595.443 151.151 595.477 148.335 594.418 146.915C593.668 145.914 592.497 145.156 591.541 144.367C589.578 142.738 587.584 141.157 585.531 139.63C581.688 136.771 577.688 134.085 573.551 131.607C558.351 122.511 541.183 116.2 523.045 113.731C505.867 111.416 488.029 112.899 470.912 117.96C453.979 122.973 437.993 131.32 423.523 141.611C416.078 146.912 408.816 152.888 404.368 160.849C399.414 169.708 399.467 179.3 401.401 188.475C403.335 197.649 406.42 206.098 408.291 215.104C410.162 224.11 411.066 232.805 411.456 241.821C412.198 259.612 410.639 277.536 409.789 295.404C409.37 304.199 409.066 313.015 409.451 321.742C409.835 330.469 410.924 339.116 412.669 347.589C416.165 364.56 422.252 381.453 432.702 395.216C442.077 407.551 455.752 417.511 472.532 418.258C487.337 418.907 501.749 412.649 514.813 405.509C523.66 400.682 532.35 395.501 541.088 390.479C550.95 384.803 560.802 379.144 570.648 373.46C580.584 367.739 590.546 362.011 600.482 356.29C609.356 351.192 619.648 346.642 624.697 337.376C627.171 332.836 628.522 327.828 629.562 322.928C630.296 319.479 631.24 315.777 631.008 312.281C630.703 307.776 628.296 303.892 625.315 300.713C621.71 296.869 617.258 293.815 612.748 291.013C607.603 287.826 602.242 284.933 596.928 282.002C586.879 276.447 575.978 270.668 568.806 261.705C565.842 258.008 563.682 253.716 563.093 248.917C562.947 247.756 564.813 247.263 564.959 248.424L564.99 248.376Z" fill="#B4B4FF" fill-opacity="0.2"/>
<path d="M170.493 193.2C169.276 185.931 169.894 178.35 172.461 171.136C174.853 164.416 178.806 158.194 183.782 152.821C194.859 140.829 210.306 135.076 225.275 129.752C233.495 126.829 241.762 123.934 249.569 119.962C256.786 116.29 263.558 111.813 270.482 107.599C277.406 103.385 284.403 99.4553 291.982 96.8473C295.655 95.5871 299.571 94.4871 303.396 94.2147C307.604 93.92 311.28 95.321 313.862 98.3814C316.443 101.442 318.125 105.438 319.724 109.167C321.322 112.895 322.642 116.421 323.825 120.154C326.218 127.678 327.849 135.47 328.676 143.395C329.502 151.32 329.541 158.794 328.713 166.563C327.885 174.332 326.284 183.044 322.797 190.632C320.97 194.62 318.523 198.297 315.225 201.355C311.928 204.414 308.09 206.745 304.189 208.909C295.51 213.744 286.679 218.317 277.811 222.781C268.943 227.244 259.964 231.579 250.934 235.73C243.864 238.981 236.763 242.28 229.3 244.383C222.468 246.319 215.295 247.225 208.472 246.023C200.687 244.666 194.046 240.491 188.914 234.981C183.136 228.772 179.089 221.158 175.609 213.472C174.681 211.425 173.79 209.354 172.925 207.276C172.401 206.031 171.589 204.665 171.364 203.327C171.051 201.499 171.032 199.554 170.866 197.7C170.736 196.219 170.601 194.713 170.471 193.232C170.368 192.074 172.233 191.581 172.337 192.739C172.628 196.049 172.692 199.471 173.209 202.734C173.412 203.972 174.141 205.203 174.618 206.355C175.441 208.299 176.264 210.242 177.139 212.172C178.858 216.014 180.729 219.789 182.864 223.429C186.907 230.293 192.08 236.794 199.252 240.789C205.28 244.152 212.334 245.266 219.512 244.517C226.689 243.768 233.243 241.496 239.735 238.793C247.961 235.369 256.019 231.475 264.051 227.588C272.73 223.411 281.33 219.058 289.861 214.577C294.083 212.355 298.299 210.109 302.478 207.819C306.294 205.717 310.101 203.5 313.393 200.614C320.382 194.459 323.307 185.648 325.155 177.188C326.76 169.886 327.452 162.456 327.439 155.107C327.403 139.633 324.152 124.363 318.199 110.426C316.627 106.756 315.055 102.757 312.458 99.6878C309.86 96.6184 305.916 95.5914 301.576 96.2503C293.972 97.4152 286.65 100.588 279.837 104.272C273.024 107.955 266.4 112.341 259.66 116.374C252.92 120.407 245.566 124.089 238.039 127.013C222.976 132.876 206.432 136.903 193.208 146.786C181.698 155.387 173.278 168.153 171.971 181.912C171.625 185.561 171.789 189.194 172.369 192.757C172.567 193.904 170.701 194.397 170.503 193.25L170.493 193.2Z" fill="#B4B4FF" fill-opacity="0.2"/>
<path d="M277.366 555.221C216.96 524.028 165.228 478.962 127.141 424.165C117.447 410.241 108.578 395.756 98.4273 382.164C88.2761 368.571 75.9494 355.448 61.923 344.737C47.8966 334.026 32.5438 325.524 15.9436 319.143C9.19008 316.552 1.86914 313.966 -2.29051 307.936C-5.91511 302.674 -6.34371 295.856 -5.40679 289.468C-0.955278 259.263 24.5575 234.894 46.3993 214.05C58.8007 202.223 71.4227 190.456 82.029 177.073C87.3952 170.319 92.4783 163.073 96.0594 155.341C99.6404 147.609 100.831 139.586 99.6372 131.363C98.5263 123.868 96.1647 116.691 94.9751 109.218C93.8428 102.085 93.462 94.7672 93.9797 87.4358C94.9883 73.1755 99.407 58.5151 108.572 46.5278C117.737 34.5405 131.485 26.6269 145.723 21.1927C160.708 15.4823 176.353 11.4027 191.96 8.46641C222.139 2.81454 252.874 1.9438 282.638 5.77037C314.298 9.84716 343.624 19.7321 371.512 33.3439C387.617 41.1999 403.385 49.6983 420.074 56.5039C436.763 63.3095 453.697 67.5073 471.451 70.5264C489.206 73.5455 507.119 75.5344 524.779 78.6971C542.307 81.8286 559.598 85.9453 576.504 91.0068C592.98 95.9317 609.566 101.447 624.972 108.684C637.706 114.676 649.596 123.526 652.297 137.888C657.703 166.701 631.265 191.354 620.504 216.782C615.057 229.645 614.365 242.504 618.302 255.155C621.742 266.159 627.652 276.114 633.242 286.062C643.996 305.188 654.633 326.861 643.554 349.711C636.529 364.177 623.304 375.181 609.818 384.014C595.087 393.65 579.18 401.712 563.405 409.41C547.63 417.108 530.557 424.635 513.733 431.227C498.395 437.241 482.791 442.377 467.386 448.199C451.981 454.02 437.195 460.416 423.62 469.417C416.911 473.864 410.627 478.95 405.084 484.723C399.177 490.882 394.483 497.801 390.057 504.939C382.051 517.833 374.087 532.046 359.747 539.378C346.594 546.094 331.741 546.406 317.966 550.809C311.26 552.949 305.147 555.802 298.143 556.717C291.138 557.631 284.23 557.084 277.665 555.26C276.531 554.941 277.116 553.165 278.25 553.485C285.829 555.581 293.898 555.914 301.912 554.259C308.849 552.822 315.246 549.538 322.11 547.751C335.868 544.196 350.942 543.417 363.266 535.26C377.609 525.753 384.551 509.24 393.834 495.759C402.09 483.801 412.976 474.008 425.378 466.159C452.123 449.265 483.171 441.21 512.258 429.877C529.308 423.239 546.107 415.863 562.571 407.812C578.005 400.27 593.559 392.38 608.033 383.036C622.176 373.898 636.421 362.203 642.942 346.658C647.815 335.027 647.213 322.944 643.459 311.76C636.499 291.026 621.329 274.187 615.662 252.874C612.528 241.144 613.487 229.098 618.312 217.308C624.218 202.861 634.187 190.279 641.558 176.473C647.944 164.522 653.06 150.547 650.311 137.542C646.997 121.907 632.317 113.635 618.348 107.771C586.341 94.3514 552.112 84.9576 517.244 79.264C500.304 76.4912 483.173 74.5327 466.312 71.4753C449.193 68.3805 432.707 63.8011 416.916 57.1799C386.08 44.2545 357.986 26.5463 325.534 16.7623C297.104 8.18216 266.862 4.3896 236.389 5.38869C206.153 6.39118 175.039 11.8815 146.168 22.92C130.416 28.9386 115.869 37.8671 106.827 52.2991C98.6377 65.3727 95.5159 80.6656 95.7311 95.2747C95.8541 102.951 97.0385 110.399 98.7852 117.752C100.427 124.671 102.301 131.634 102.145 138.909C101.835 153.789 91.8163 167.926 82.3204 179.592C61.9293 204.651 34.8511 223.992 15.2946 249.727C5.92412 262.058 -2.59296 277.076 -3.77582 292.16C-4.42586 300.449 -1.88054 307.775 5.25974 312.214C12.4 316.653 20.5307 318.669 27.9506 322.059C58.9534 336.245 83.8059 358.341 103.21 385.275C112.558 398.276 120.997 411.899 130.197 424.992C139.87 438.75 150.442 451.902 161.782 464.35C184.042 488.764 209.341 510.544 237.077 529.125C250.364 538.028 264.199 546.167 278.497 553.538C279.537 554.068 278.484 555.663 277.444 555.134L277.366 555.221Z" fill="#B4B4FF" fill-opacity="0.2"/>
<path d="M428.841 276.88C429.564 264.566 424.98 253.193 421.703 241.778C420.07 236.095 418.816 230.299 418.423 224.315C418.03 218.331 418.425 212.6 419.493 206.77C421.612 195.168 426.38 183.829 433.446 173.871C440.513 163.914 449.622 155.697 460.309 149.725C470.997 143.753 482.091 140.388 493.645 139.154C505.2 137.921 517.056 139.059 527.586 142.932C535.579 145.881 545.779 153.214 542.674 163.087C541.614 166.437 539.11 169.115 536.78 171.759C534.45 174.404 532.44 177.254 530.855 180.348C527.801 186.359 526.407 192.947 525.822 199.426C525.237 205.906 525.45 212.689 525.884 219.268C526.375 226.781 526.961 234.282 527.52 241.79C528.079 249.298 528.648 257.186 529.207 264.892C529.45 268.174 529.557 271.533 530.242 274.738C530.927 277.944 532.584 280.827 535.182 283.04C537.78 285.252 541.125 287.057 544.149 288.92L553.746 294.766C560.152 298.674 566.636 302.496 572.978 306.5C575.535 308.117 578.013 310.019 579.176 312.861C580.025 314.93 580.164 317.186 579.726 319.463C578.775 324.392 575.596 328.881 572.261 332.753C568.337 337.321 563.887 341.567 559.554 345.768C555.004 350.198 550.319 354.506 545.418 358.581C535.852 366.537 525.389 373.714 513.862 378.525C508.217 380.899 502.352 382.685 496.372 383.724C489.977 384.833 483.21 385.092 477.513 382.315C467.089 377.227 463.715 364.151 465.392 353.219C467.462 339.654 475.361 327.579 479.988 314.643C483.698 304.215 486.045 290.787 478.826 281.994C473.453 275.467 462.277 271.422 454.022 277.226C450.19 279.912 447.321 284.491 442.654 285.908C440.973 286.418 439.092 286.243 437.78 285.206C436.85 284.476 435.995 283.635 435.097 282.857C433.092 281.094 431.087 279.331 429.067 277.558C428.201 276.799 429.636 275.51 430.502 276.27C432.56 278.085 434.628 279.885 436.685 281.7C437.515 282.416 438.302 283.329 439.231 283.926C440.722 284.89 442.74 284.133 444.212 283.217C448.239 280.73 450.918 276.57 455.229 274.443C459.539 272.317 464.094 272.22 468.338 273.287C472.582 274.353 476.704 276.756 479.637 279.974C483.027 283.717 484.739 288.654 485.201 293.711C486.318 305.605 481.23 317.266 476.18 328.246C470.724 340.136 464.794 352.942 467.691 365.657C468.935 371.074 471.724 376.319 476.433 379.477C481.815 383.063 488.734 383.133 495.25 382.07C519.653 378.102 540.218 361.957 557.642 345.114C561.907 340.983 566.22 336.813 570.176 332.395C573.569 328.6 577.031 324.009 577.913 319.085C578.321 316.79 578.034 314.494 576.865 312.549C575.113 309.612 571.7 307.944 568.823 306.187C562.559 302.36 556.285 298.549 550.021 294.722L540.424 288.876C537.626 287.164 534.738 285.489 532.46 283.152C527.973 278.54 527.818 272.032 527.367 265.839C526.28 250.907 525.141 235.988 524.106 221.042C523.232 208.583 522.69 195.26 527.647 183.04C528.817 180.148 530.286 177.362 532.101 174.774C534.106 171.899 536.714 169.458 538.782 166.619C540.492 164.256 541.567 161.574 541.276 158.792C541.047 156.573 540.04 154.546 538.708 152.816C535.843 149.132 531.57 146.465 527.116 144.795C521.912 142.849 516.318 141.626 510.697 141.002C499.461 139.779 487.775 141.048 476.701 144.579C465.628 148.11 455.03 154.045 446.321 161.985C437.612 169.925 430.171 180.679 425.725 191.829C421.278 202.978 419.369 214.722 420.47 226.146C421.571 237.569 426.335 248.737 429.023 260.124C430.314 265.567 431.07 271.166 430.738 276.867C430.668 278.058 428.772 278.071 428.857 276.889L428.841 276.88Z" fill="#B4B4FF" fill-opacity="0.2"/>
<path d="M446.095 246.943C442.116 238.994 438.4 230.778 436.334 222.034C434.41 213.898 434.004 205.005 437.281 196.747C441.254 186.711 449.983 179.728 459.235 174.188C463.919 171.395 468.767 168.521 473.771 166.395C478.775 164.27 483.609 163.586 488.388 165.223C493.167 166.859 496.857 170.049 500.105 173.513C501.805 175.343 503.385 177.258 504.933 179.221C506.48 181.184 507.865 183.032 508.672 185.297C510.196 189.532 509.03 194.097 507.234 198.3C505.311 202.827 502.937 207.117 501.55 211.819C500.163 216.52 499.506 221.596 499.643 226.488C499.779 231.38 500.898 235.999 502.349 240.61C503.563 244.493 504.914 249.025 503.118 253.163C501.322 257.3 497.363 259.255 493.186 259.897C488.094 260.675 482.931 259.918 477.908 259.571C471.589 259.118 465.269 258.666 458.965 258.223C458.177 258.167 457.404 258.121 456.627 258.05C456.049 258.005 455.277 258.09 454.751 257.899C454.394 257.783 454.316 257.606 454.111 257.357C453.497 256.61 452.915 255.815 452.322 255.036L447.296 248.51L446.252 247.165C445.565 246.266 446.98 244.944 447.688 245.877C450.39 249.38 453.076 252.874 455.788 256.361L455.121 256.089C465.523 256.833 475.935 257.76 486.379 258.308C490.009 258.496 494.144 258.511 497.534 256.693C501.114 254.785 502.411 251.109 502.031 247.507C501.636 243.698 500.09 240.219 499.159 236.564C498.175 232.726 497.712 228.724 497.769 224.69C497.826 220.656 498.393 216.474 499.479 212.458C500.566 208.442 502.267 204.711 504.068 200.928C505.743 197.403 507.47 193.665 507.553 189.822C507.631 185.361 504.767 182.006 502.154 178.796C497.154 172.658 490.542 165.444 481.342 166.201C476.98 166.562 472.88 168.699 469.032 170.783C464.758 173.085 460.505 175.42 456.431 178.078C448.686 183.141 441.786 189.654 438.698 198.284C433.47 212.921 439.417 228.348 445.387 241.042C446.168 242.72 446.985 244.375 447.819 246.04C448.338 247.062 446.635 248 446.126 246.961L446.095 246.943Z" fill="#B4B4FF" fill-opacity="0.2"/>
</g>
</svg>
