<svg width="420" height="200" viewBox="0 0 420 200" fill="none" xmlns="http://www.w3.org/2000/svg">
<mask id="mask0_2416_21656" style="mask-type:alpha" maskUnits="userSpaceOnUse" x="-1" y="0" width="421" height="200">
<rect x="-1" width="421" height="200" fill="#1C2395"/>
</mask>
<g mask="url(#mask0_2416_21656)">
<path d="M385.252 -28.5304C411.966 -57.7401 419.383 -97.0456 420.962 -134.809C421.374 -144.601 421.404 -154.418 421.256 -164.213C421.107 -174.008 421.412 -183.463 420.076 -192.944C417.25 -212.961 400.313 -226.464 385.473 -239.939C367.609 -256.152 349.758 -272.382 331.894 -288.596C323.016 -296.653 314.15 -304.726 305.273 -312.783C296.395 -320.84 288.339 -328.616 279.369 -335.984C270.399 -343.352 261.027 -349.034 249.826 -352.079C239.437 -354.897 228.642 -355.789 217.966 -356.695C197.197 -358.465 176.272 -359.567 155.565 -357.942C134.858 -356.317 115.179 -351.668 96.7428 -343.456C78.2771 -335.241 61.5372 -324.172 45.7503 -312.244C37.6225 -306.103 29.7038 -299.72 21.8541 -293.288C14.9074 -287.587 5.50674 -281.532 7.42216 -271.599C8.28057 -267.114 10.7274 -262.907 12.7517 -258.776C15.2908 -253.606 17.8299 -248.436 20.3517 -243.278C25.5499 -232.685 30.7481 -222.091 35.9462 -211.498C46.2226 -190.564 56.4817 -169.642 66.7456 -148.693C77.0095 -127.744 87.0449 -106.541 97.685 -85.6942C102.382 -76.494 107.988 -67.9971 116.434 -61.2854C125.402 -54.1853 136.028 -48.9667 146.23 -43.6543C167.451 -32.6063 189.188 -22.5104 211.117 -12.7908C222.221 -7.8703 233.358 -3.02431 244.519 1.79042C254.617 6.1554 264.684 10.6935 275.151 14.2229C293.53 20.4484 314.29 23.208 331.992 14.8739C335.857 13.0491 339.444 10.7638 342.509 7.92068C344.232 6.3278 345.531 4.39105 347.206 2.78973C349.57 0.526026 352.347 -1.44912 354.892 -3.53729L379.94 -24.1437L385.068 -28.3669C386.076 -29.1952 384.755 -30.7715 383.748 -29.9432C371.226 -19.6262 358.687 -9.32116 346.153 1.01149C345 1.95639 344.238 3.15019 343.262 4.24299C340.271 7.59953 336.481 10.3753 332.346 12.473C324.185 16.5986 314.674 18.3749 305.293 18.2011C283.986 17.7811 263.966 8.05566 244.869 -0.200557C223.25 -9.53417 201.646 -18.9544 180.361 -28.9781C169.924 -33.8949 159.582 -38.9645 149.338 -44.2576C139.093 -49.5508 128.241 -54.8548 119.024 -61.8119C109.808 -68.7689 104.181 -77.475 99.2833 -87.1308C94.3851 -96.7866 89.2788 -107.462 84.289 -117.643C74.27 -138.057 64.251 -158.472 54.2445 -178.901C44.2255 -199.315 34.2065 -219.73 24.1999 -240.159C21.6609 -245.329 19.1218 -250.499 16.6 -255.657C14.4431 -260.027 11.9847 -264.387 10.3552 -268.948C8.45951 -274.252 9.3696 -278.938 13.1897 -283.101C16.6025 -286.819 20.9594 -289.904 24.9139 -293.123C55.01 -317.717 87.3191 -342.396 127.345 -351.691C147.038 -356.257 167.602 -357.229 187.995 -356.571C198.327 -356.245 208.638 -355.52 218.931 -354.638C229.224 -353.756 240.36 -352.821 250.647 -349.806C261.926 -346.488 271.397 -340.155 280.112 -332.77C288.827 -325.385 297.366 -317.273 305.936 -309.503C323.246 -293.772 340.568 -278.057 357.861 -262.339C366.63 -254.382 375.387 -246.409 384.157 -238.451C391.614 -231.676 399.437 -225.058 405.958 -217.477C412.48 -209.896 417.028 -201.116 418.173 -191.258C419.317 -181.401 419.081 -171.898 419.178 -162.309C419.592 -125.027 417.856 -85.6493 399.584 -52.1841C395.198 -44.14 389.799 -36.6081 383.527 -29.7328C382.662 -28.7807 384.388 -27.5783 385.252 -28.5304Z" fill="#B4B4FF" fill-opacity="0.2"/>
<path d="M-96.5233 -16.8577C-93.4052 -4.89606 -100.276 6.71144 -107.038 16.1596C-114.982 27.2621 -124.607 37.2415 -132.31 48.5123C-138.019 56.8725 -143.9 67.6396 -139.284 77.852C-137.39 82.0132 -134.505 86.0399 -131.804 89.7924C-128.688 94.1016 -125.106 98.2978 -120.628 101.467C-116.149 104.637 -111.15 106.275 -105.849 107.297C-99.8738 108.449 -93.7976 109.137 -87.7642 110.014C-62.3307 113.675 -36.8972 117.335 -11.4762 121.011C-0.624894 122.574 10.2181 124.349 21.113 125.553C29.396 126.467 37.7847 126.945 46.0598 126.251C54.3348 125.557 62.4666 123.694 69.7331 120.086C77.6982 116.14 84.3067 110.325 89.3796 103.44C100.281 88.6177 103.949 69.9443 104.171 52.028C104.4 32.7555 100.819 13.282 94.4784 -5.24911C88.0346 -24.0219 78.7268 -41.9245 70.5351 -60.1179C62.3435 -78.3113 54.7176 -98.1266 51.6219 -118.21C50.073 -128.3 49.8646 -138.526 47.6455 -148.549C45.4264 -158.573 40.7628 -167.579 32.1331 -174.128C24.186 -180.152 14.3622 -183.208 4.64647 -185.558C-5.0692 -187.908 -14.7064 -189.548 -24.5101 -190.405C-44.2706 -192.128 -64.2238 -190.439 -82.8988 -184.726C-101.802 -178.928 -118.927 -169.026 -133.354 -156.515C-141.159 -149.736 -148.199 -142.231 -154.412 -134.149C-157.694 -129.853 -160.739 -125.417 -163.565 -120.852C-164.921 -118.64 -166.226 -116.392 -167.48 -114.108C-168.295 -112.611 -169.347 -111.085 -169.871 -109.483C-170.672 -107.126 -169.658 -104.355 -168.723 -102.125C-167.171 -98.4444 -164.956 -94.9577 -162.701 -91.5887C-156.331 -82.0975 -148.864 -73.1773 -141.294 -64.453C-133.228 -55.1396 -124.846 -46.0197 -116.341 -37.0561C-110.565 -30.9662 -104.721 -24.9268 -98.816 -18.9655C-97.9692 -18.1082 -97.1224 -17.2509 -96.2632 -16.4092C-95.3129 -15.4798 -93.654 -16.6555 -94.6043 -17.5849C-97.8513 -20.8193 -101.056 -24.0729 -104.219 -27.3457C-111.682 -35.024 -119.036 -42.7719 -126.243 -50.6366C-134.521 -59.6843 -142.657 -68.8763 -150.303 -78.382C-156.19 -85.7151 -162.394 -93.3909 -166.306 -101.825C-167.232 -103.831 -168.414 -106.695 -167.909 -108.577C-167.55 -109.906 -166.662 -111.157 -166.006 -112.352C-164.663 -114.817 -163.269 -117.245 -161.792 -119.641C-159.029 -124.128 -156.034 -128.502 -152.814 -132.719C-140.982 -148.205 -126.005 -161.644 -108.471 -171.553C-91.8572 -180.913 -73.0213 -186.659 -53.4657 -188.455C-34.1179 -190.226 -14.3809 -188.204 4.59837 -183.576C14.3658 -181.19 24.2215 -178.038 32.0091 -171.712C40.6787 -164.675 44.5303 -154.849 46.289 -144.685C48.0477 -134.521 48.3341 -124.63 50.0887 -114.663C51.8433 -104.696 54.4588 -95.4407 57.7314 -86.0675C64.216 -67.5821 73.107 -49.8972 81.2503 -31.9803C85.2596 -23.1625 89.1597 -14.275 92.3199 -5.19877C95.4801 3.87744 97.8878 13.158 99.5535 22.5286C102.89 41.2976 103.547 61.0414 98.4693 79.3637C93.9093 95.7877 83.9875 111.536 67.1414 119.13C52.2744 125.821 34.9957 125.293 18.7369 123.314C7.72883 121.983 -3.26261 120.225 -14.2375 118.65C-26.6281 116.864 -39.0014 115.091 -51.3795 113.291C-63.864 111.489 -76.3781 109.69 -88.8626 107.889C-100.008 106.291 -112.38 105.831 -121.312 98.4159C-125.69 94.7823 -129.109 90.2134 -132.167 85.6289C-134.322 82.403 -136.794 79.004 -137.98 75.3358C-139.502 70.6071 -138.623 65.6574 -136.871 61.1947C-134.751 55.7979 -131.445 50.8639 -127.976 46.1645C-124.015 40.8122 -119.713 35.6728 -115.476 30.513C-107.466 20.7439 -98.6773 10.4001 -94.9963 -1.68128C-93.4718 -6.667 -93.0117 -11.9329 -94.3642 -17.0776C-94.6876 -18.3231 -96.795 -18.0672 -96.4716 -16.8216L-96.5233 -16.8577Z" fill="#B4B4FF" fill-opacity="0.2"/>
<path d="M322.379 179.656C371.418 123.182 405.944 56.0587 422.562 -15.4551C426.801 -33.6331 429.968 -52.0482 434.809 -70.0735C439.65 -88.0989 446.906 -106.53 456.881 -123.188C466.856 -139.846 479.086 -154.787 493.455 -168.068C499.302 -173.466 505.732 -179.09 507.528 -186.946C509.091 -193.8 506.753 -200.943 503.194 -207.091C486.347 -236.15 450.349 -250.67 419.539 -263.081C402.049 -270.12 384.357 -277.008 368.068 -286.368C359.834 -291.086 351.689 -296.422 344.88 -302.867C338.072 -309.312 333.589 -317.027 331.461 -325.918C329.545 -334.03 329.037 -342.327 327.21 -350.45C325.463 -358.201 322.873 -365.835 319.359 -373.118C312.522 -387.282 302.037 -400.467 287.789 -408.988C273.541 -417.508 256.268 -419.999 239.503 -419.756C221.863 -419.492 204.211 -417.292 187.065 -413.939C153.919 -407.428 122.15 -395.805 93.2874 -379.776C62.5883 -362.719 36.6392 -340.676 13.6776 -315.409C0.415844 -300.823 -12.2399 -285.717 -26.5265 -271.967C-40.8132 -258.216 -56.4114 -247.031 -73.3286 -236.717C-90.2458 -226.403 -107.745 -217.077 -124.507 -206.654C-141.147 -196.317 -157.144 -185.07 -172.362 -173.013C-187.197 -161.271 -201.903 -148.882 -214.703 -135.213C-225.278 -123.904 -233.827 -110.017 -230.741 -94.2393C-224.535 -62.589 -187.476 -48.1554 -166.125 -26.5477C-155.321 -15.6183 -149.378 -2.75713 -148.252 11.776C-147.287 24.4229 -149.275 37.0045 -150.937 49.4479C-154.142 73.3742 -156.189 99.8565 -135.563 118.7C-122.494 130.625 -104.496 136.488 -87.1168 140.025C-68.1366 143.876 -48.5963 145.64 -29.3388 147.085C-10.0814 148.53 10.4324 149.273 30.3121 149.16C48.4365 149.062 66.4761 147.959 84.5915 147.637C102.707 147.315 120.423 147.832 137.963 151.505C146.63 153.318 155.123 155.958 163.14 159.602C171.685 163.491 179.299 168.652 186.729 174.146C200.16 184.065 214.088 195.349 231.73 197.004C247.906 198.513 263.214 192.786 279.086 191.677C286.812 191.134 294.221 191.561 301.753 189.644C309.284 187.727 316.122 184.355 322.089 179.818C323.119 179.03 321.798 177.454 320.768 178.242C313.876 183.47 305.764 187.096 296.899 188.667C289.224 190.022 281.348 189.27 273.606 190.239C258.097 192.207 242.373 197.547 226.456 194.228C207.926 190.351 194.107 176.3 179.131 166.301C165.824 157.44 150.71 151.863 134.839 148.891C100.626 142.513 65.6128 146.92 31.2699 147.18C11.1404 147.337 -9.03251 146.638 -29.1375 145.112C-47.9822 143.687 -67.0925 141.956 -85.6903 138.298C-103.866 134.717 -123.187 128.563 -136.181 115.33C-145.897 105.426 -150.201 92.8321 -150.917 79.8727C-152.245 55.8476 -143.596 32.4603 -146.482 8.37011C-148.054 -4.89473 -153.939 -16.8169 -163.671 -26.9022C-175.588 -39.2637 -190.901 -48.0643 -204.055 -59.1742C-215.448 -68.7896 -226.367 -80.99 -228.852 -95.4006C-231.831 -112.73 -220.194 -127.162 -208.304 -138.842C-181.054 -165.59 -149.895 -189.127 -116.575 -209.142C-100.389 -218.873 -83.6783 -227.85 -67.6896 -237.839C-51.4531 -247.972 -36.467 -259.365 -23.0234 -272.561C3.23091 -298.327 24.7349 -327.864 53.9201 -351.076C79.4837 -371.421 108.849 -387.61 140.401 -398.995C171.714 -410.281 205.749 -417.337 239.752 -417.81C258.302 -418.072 276.806 -414.869 291.923 -403.799C305.615 -393.771 315.032 -379.412 320.761 -364.393C323.76 -356.497 325.582 -348.402 326.79 -340.176C327.929 -332.436 328.849 -324.556 331.97 -317.183C338.346 -302.102 354.341 -291.732 368.796 -283.675C399.84 -266.364 435.39 -257.621 465.856 -239.281C480.454 -230.492 495.273 -218.61 502.624 -203.675C506.663 -195.468 507.044 -186.944 501.553 -179.5C496.063 -172.056 488.574 -166.684 482.37 -160.199C456.459 -133.077 440.054 -100.375 431.187 -64.9461C426.926 -47.8524 423.848 -30.493 419.774 -13.3657C415.489 4.63447 410.039 22.3809 403.517 39.7208C390.706 73.737 373.716 106.298 352.933 136.581C342.977 151.09 332.15 165.042 320.538 178.397C319.691 179.361 321.416 180.564 322.263 179.6L322.379 179.656Z" fill="#B4B4FF" fill-opacity="0.2"/>
<path d="M307.675 111.82C313.719 99.9038 317.888 84.7133 307.792 73.0625C296.498 60.0182 277.442 58.8591 261.136 58.086C252.319 57.6742 243.593 56.9125 234.936 54.9847C226.279 53.0568 217.918 50.2176 209.943 46.5549C201.969 42.8922 194.406 38.3747 187.491 33.1431C181.643 28.7279 175.007 23.1801 166.977 24.4095C160.718 25.3673 155.855 30.0666 153.708 35.3961C151.165 41.6634 152.744 48.7149 155.997 54.6736C159.973 61.914 166.26 67.6313 172.444 73.2764C175.923 76.4543 179.408 79.6597 182.453 83.2151C185.307 86.5396 187.783 90.1358 189.94 93.8979C197.881 107.787 200.803 123.401 208.072 137.527C211.351 143.892 215.584 150 221.528 154.531C227.471 159.062 235.331 161.722 243.179 162.138C258.422 162.899 273.522 157.197 284.779 148.233C290.433 143.72 295.282 138.331 298.939 132.281C300.727 129.325 302.266 126.244 303.466 123.048C304.292 120.83 304.848 118.546 305.772 116.372C306.416 114.854 307.048 113.351 307.692 111.832C308.187 110.671 306.19 109.911 305.7 111.1L303.807 115.537C302.973 117.531 302.438 119.587 301.715 121.609C299.42 128.001 295.857 133.898 291.34 139.106C282.314 149.479 269.365 156.995 255.042 159.427C247.447 160.716 239.331 160.671 231.938 157.997C224.545 155.322 219.146 150.613 214.907 144.816C205.982 132.67 202.831 117.917 197.309 104.426C194.317 97.0938 190.508 89.946 185.416 83.6037C179.878 76.7082 172.707 71.2253 166.472 64.937C161.244 59.6418 156.494 53.4413 155.011 46.3357C153.732 40.222 155.386 33.8934 160.324 29.7074C162.567 27.7972 165.366 26.4689 168.465 26.2479C172.327 25.9765 176.051 27.5998 179.205 29.603C182.577 31.7349 185.59 34.32 188.826 36.6238C192.062 38.9276 195.681 41.2554 199.282 43.3032C213.672 51.5097 229.832 56.9176 246.437 58.9674C263.042 61.0173 280.532 58.8509 295.807 66.484C302.767 69.9736 308.701 75.4936 310.861 82.6581C312.811 89.1422 311.723 95.9385 309.591 102.128C308.519 105.195 307.191 108.18 305.713 111.084C305.137 112.213 307.146 112.958 307.705 111.817L307.675 111.82Z" fill="#B4B4FF" fill-opacity="0.2"/>
<path d="M54.2356 -43.1561C48.4834 -55.4474 48.5388 -68.9381 47.2397 -81.9396C46.595 -88.4127 45.5175 -94.8474 43.4826 -101.123C41.4476 -107.399 38.7105 -113.096 35.2459 -118.62C28.356 -129.615 18.8669 -139.264 7.59017 -146.564C-3.68652 -153.863 -16.3415 -158.553 -29.6964 -160.306C-43.0513 -162.059 -55.7607 -160.981 -68.0724 -157.537C-80.384 -154.094 -92.039 -148.104 -101.224 -139.858C-108.193 -133.59 -115.632 -121.942 -108.439 -113.115C-105.992 -110.122 -102.343 -108.405 -98.8843 -106.651C-95.4258 -104.897 -92.2109 -102.802 -89.3317 -100.285C-83.763 -95.3846 -79.6559 -89.219 -76.4199 -82.8347C-73.1839 -76.4504 -70.6404 -69.4313 -68.4054 -62.5301C-65.8483 -54.6514 -63.3926 -46.7462 -60.9073 -38.8447C-58.4219 -30.9431 -55.7924 -22.6497 -53.2264 -14.5462C-52.1386 -11.092 -50.8802 -7.61608 -50.275 -4.06091C-49.6697 -0.505734 -50.1896 3.1155 -51.9442 6.43485C-53.6989 9.75422 -56.3826 12.9604 -58.715 16.0958L-66.1444 25.978C-71.0999 32.5805 -76.1713 39.1265 -81.0232 45.8012C-82.978 48.4954 -84.736 51.4481 -84.7678 54.8264C-84.7932 57.2863 -84.0171 59.6489 -82.6419 61.7974C-79.663 66.448 -74.5868 69.7426 -69.6016 72.3423C-63.7308 75.4133 -57.4547 77.941 -51.3147 80.471C-44.8613 83.1465 -38.3181 85.6417 -31.6499 87.8111C-18.6345 92.0477 -5.01822 95.1241 8.72148 95.3475C15.4578 95.4754 22.1797 94.9133 28.7147 93.5408C35.7026 92.0709 42.7245 89.5803 47.4166 84.4216C55.9987 74.9784 54.1237 60.2395 47.9584 49.7492C40.3206 36.7268 27.331 27.6018 17.335 16.2637C9.2974 7.11617 1.43114 -5.65256 5.23016 -17.5789C8.06422 -26.437 17.8395 -35.1216 28.6396 -32.5503C33.6506 -31.3657 38.4465 -27.8535 43.7934 -28.3052C45.72 -28.4686 47.5708 -29.4134 48.4899 -31.0075C49.1425 -32.1316 49.6742 -33.3399 50.275 -34.5C51.6064 -37.1185 52.9378 -39.7369 54.2816 -42.371C54.8576 -43.4999 52.8656 -44.2323 52.2896 -43.1034C50.9258 -40.4104 49.5447 -37.7294 48.1809 -35.0364C47.625 -33.9664 47.1919 -32.7137 46.4856 -31.7242C45.3539 -30.1325 42.9828 -30.0846 41.1053 -30.4214C35.9768 -31.3235 31.5453 -34.4846 26.2739 -34.9033C21.0024 -35.3221 16.3075 -33.5659 12.4041 -30.7481C8.50077 -27.9302 5.26669 -23.7958 3.57873 -19.3127C1.63796 -14.107 1.89762 -8.36368 3.48409 -3.00742C7.18535 9.60351 17.1334 19.4509 26.7655 28.6165C37.1829 38.548 48.4576 49.2227 50.6737 63.3977C51.6071 69.4404 50.8919 75.9374 47.3642 81.0817C43.3242 86.9377 36.2808 89.8262 29.1887 91.3935C2.63152 97.2731 -24.9608 89.145 -49.6274 79.0236C-55.6687 76.5381 -61.7743 74.0321 -67.6161 71.127C-72.629 68.6295 -78.0365 65.3468 -80.9436 60.6734C-82.294 58.4936 -82.9361 56.0301 -82.5324 53.5666C-81.938 49.8516 -79.1286 46.7572 -76.9033 43.7901C-72.0597 37.3282 -67.1988 30.8784 -62.3552 24.4165L-54.9258 14.5344C-52.7626 11.6455 -50.4931 8.75777 -49.1167 5.442C-46.4087 -1.0994 -48.8992 -7.81433 -50.9603 -14.3272C-55.9289 -30.0317 -60.8382 -45.7434 -65.8662 -61.4406C-70.045 -74.5301 -74.9153 -88.3686 -84.9571 -98.84C-87.3297 -101.319 -89.9654 -103.569 -92.8745 -105.475C-96.0941 -107.597 -99.7542 -109.03 -103.024 -111.09C-105.733 -112.808 -107.924 -115.112 -108.759 -118.074C-109.429 -120.436 -109.225 -122.917 -108.568 -125.228C-107.14 -130.16 -103.857 -134.625 -99.9855 -138.145C-95.4585 -142.253 -90.2393 -145.781 -84.7483 -148.707C-73.7615 -154.531 -61.3015 -157.993 -48.5458 -158.892C-35.7902 -159.792 -22.5416 -158.04 -10.4077 -153.471C1.72619 -148.901 13.7096 -140.939 22.7935 -131.354C31.8774 -121.769 38.6106 -110.542 42.136 -98.4184C45.6613 -86.2944 45.3396 -72.9408 47.2282 -60.2085C48.1242 -54.1189 49.6312 -48.0894 52.2916 -42.3976C52.8477 -41.2085 54.7917 -41.967 54.2231 -43.1405L54.2356 -43.1561Z" fill="#B4B4FF" fill-opacity="0.2"/>
</g>
</svg>
